<svg width="19" height="19" fill="none" xmlns="http://www.w3.org/2000/svg"><path fill-rule="evenodd" clip-rule="evenodd" d="M14.174 3.197a1.109 1.109 0 100 2.218 1.109 1.109 0 000-2.218zm4.25 2.236A7.014 7.014 0 0018 3.188a4.564 4.564 0 00-1.072-1.636A4.343 4.343 0 0015.292.49a6.745 6.745 0 00-2.245-.435C12.067 0 11.753 0 9.24 0S6.413 0 5.433.055A6.745 6.745 0 003.188.49a4.417 4.417 0 00-1.636 1.062A4.343 4.343 0 00.49 3.188a6.745 6.745 0 00-.435 2.245C0 6.413 0 6.727 0 9.24s0 2.827.055 3.807c.016.768.163 1.527.435 2.245a4.343 4.343 0 001.062 1.636 4.43 4.43 0 001.636 1.062 6.745 6.745 0 002.245.435c.98.055 1.294.055 3.807.055s2.827 0 3.807-.055a6.745 6.745 0 002.245-.435 4.343 4.343 0 001.636-1.062A4.492 4.492 0 0018 15.292c.263-.72.407-1.479.425-2.245 0-.98.055-1.294.055-3.807s0-2.827-.055-3.807zm-1.663 7.503a5.185 5.185 0 01-.314 1.719 2.826 2.826 0 01-.693 1.062 2.94 2.94 0 01-1.062.693 5.183 5.183 0 01-1.719.314c-.924.047-1.266.056-3.696.056s-2.772 0-3.696-.056a5.295 5.295 0 01-1.793-.277 3.021 3.021 0 01-1.016-.693 2.772 2.772 0 01-.684-1.062 5.119 5.119 0 01-.37-1.756c0-.924-.055-1.266-.055-3.696s0-2.772.056-3.696c.004-.6.113-1.194.323-1.756.163-.39.412-.737.73-1.016.28-.318.628-.57 1.016-.74a5.294 5.294 0 011.756-.313c.924 0 1.266-.056 3.696-.056s2.772 0 3.696.056a5.183 5.183 0 011.719.314c.42.156.796.409 1.1.739.302.284.539.63.692 1.016a5.16 5.16 0 01.314 1.756c.047.924.056 1.266.056 3.696s-.01 2.772-.056 3.696zM9.24 4.5a4.74 4.74 0 104.75 4.74A4.732 4.732 0 009.24 4.5zm0 7.817a3.077 3.077 0 110-6.154 3.077 3.077 0 010 6.154z" fill="#fff"/></svg>