<svg width="18" height="21" fill="none" xmlns="http://www.w3.org/2000/svg"><path d="M5.916.362a.75.75 0 10-.789 1.276l.79-1.276zM9 3.152l.636.397a.75.75 0 00-.241-1.035L9 3.152zM6.277 6.097a.75.75 0 001.272.794l-1.272-.794zm8.631-1.288a.75.75 0 10-1.039 1.082l1.039-1.082zm-9.78-3.171L8.604 3.79l.79-1.276L5.916.362l-.789 1.276zm3.236 1.117L6.277 6.097l1.272.794L9.636 3.55l-1.272-.794zm7.886 8.821c0 4.275-3.282 7.674-7.25 7.674v1.5c4.868 0 8.75-4.144 8.75-9.174h-1.5zM9 19.25c-3.968 0-7.25-3.399-7.25-7.674H.25c0 5.03 3.881 9.174 8.75 9.174v-1.5zm-7.25-7.674c0-4.275 3.282-7.674 7.25-7.674v-1.5c-4.869 0-8.75 4.144-8.75 9.174h1.5zm12.12-5.685c1.458 1.4 2.38 3.425 2.38 5.685h1.5c0-2.673-1.092-5.087-2.842-6.767L13.869 5.89z" fill="#fff"/></svg>