<svg width="220" height="73" fill="none" xmlns="http://www.w3.org/2000/svg"><path d="M55.516 26.2c-2.306.67-4.853 1.279-6.19 4.384-.83 2.127-.26 3.774-2.507 5.112h8.697v5.862c0 3.854-3.455 4.952-3.455 0v-2.866h-8.417v-9.326c-.809 2.336-2.057 3.774-3.804 4.144.569.519.998 1.248.998 2.376v5.831c0 4.134-3.425 5.632-5.571 5.352 3.814 1.688 8.547.19 8.547-5.521h5.312c0 8.796 9.236 7.987 9.236.02V23.754c-.49.899-.879 1.798-2.846 2.447zm0 6.72h-3.195a3.192 3.192 0 013.195-3.195v3.196z" fill="url(#paint0_linear)"/><path d="M36.695 17.674v1.298c-.04-.5-.07-.919-.03-1.298h.03z" fill="url(#paint1_linear)"/><path d="M36.696 18.962v22.825h-2.845V12.172c.1 1.258 1.168 2.666 3.424 4.264-.399.369-.559.768-.609 1.238-.04.369-.01.798.03 1.288z" fill="url(#paint2_linear)"/><path d="M27.02 28.667c-1.039 3.834 2.296 5.602 3.055 7.828 1.118 3.485-.33 6.8-2.127 8.977-2.566 2.676-6.67 3.185-9.635 1.677-4.983-3.295-4.494-8.507-2.796-11.373 1.717-2.855 3.544-2.626 1.607-7.798 2.227.36 3.146 1.638 2.127 4.264 1.408-.11 1.867.759 1.837 2.126-2.885-1.757-4.822 1.638-5.102 3.984-.09.84.2 1.898.36 2.347 1.367 3.784 5.082 4.503 7.618 3.235 4.493-2.876 3.485-8.547-.919-10.015.29-.958 1.099-1.188 2.097-1.148-.33-1.698.54-2.986 1.877-4.104z" fill="url(#paint3_linear)"/><path d="M21.628 40.59a1.767 1.767 0 100-3.535 1.767 1.767 0 000 3.534z" fill="url(#paint4_linear)"/><path d="M50.814 21.059a1.578 1.578 0 100-3.156 1.578 1.578 0 000 3.156z" fill="url(#paint5_linear)"/><path d="M56.356 21.059a1.578 1.578 0 100-3.156 1.578 1.578 0 000 3.156z" fill="url(#paint6_linear)"/><path d="M74.508 36.215l-2.257-1.887 1.448-1.737c-.38-3.545-1.268-7-2.666-10.305a36.532 36.532 0 00-7.818-11.602 36.367 36.367 0 00-11.603-7.818C47.11.959 42.336 0 37.404 0h-.3C32.182 0 27.4.969 22.895 2.866a36.53 36.53 0 00-11.602 7.818 36.259 36.259 0 00-7.818 11.602A36.127 36.127 0 00.809 32.591l1.448 1.737L0 36.215l.13.13 2.137 2.177L.769 40a35.9 35.9 0 002.706 10.714 36.531 36.531 0 007.818 11.602 36.367 36.367 0 0011.602 7.818C27.4 72.041 32.172 73 37.105 73h.299c4.922 0 9.705-.969 14.208-2.866a36.53 36.53 0 0011.603-7.818 36.368 36.368 0 007.818-11.602A36.205 36.205 0 0073.739 40l-1.498-1.478 2.137-2.177.13-.13zM37.114 1.578h.3c17.573 0 32.161 13.05 34.567 29.965l-1.078 1.228-1.168-1.079c-1.009-6.91-4.194-13.28-9.216-18.302-6.17-6.17-14.378-9.566-23.105-9.566h-.3c-8.727 0-16.934 3.395-23.105 9.566C8.986 18.412 5.8 24.783 4.793 31.692l-1.168 1.079s-1.069-1.209-1.079-1.229C4.953 14.628 19.541 1.579 37.114 1.579zm33.03 37.064l-1.907 1.937c-1.997 15.217-15.057 27.01-30.823 27.01h-.3c-15.766 0-28.816-11.793-30.823-27.01l-1.908-1.937 2.157-2.117v-.01l-2.047-2.257 1.768-1.597C8.158 17.324 21.268 5.4 37.114 5.4h.3c15.846 0 28.956 11.913 30.853 27.26l1.767 1.597-2.047 2.257v.01l2.157 2.117zM2.167 36.485l1.128-1.108 1.108 1.128-1.128 1.108-1.108-1.128zm35.247 34.927h-.3c-17.683 0-32.341-13.22-34.608-30.294.01 0 1.109-1.168 1.109-1.168l1.148 1.098c.968 7 4.174 13.47 9.256 18.552 6.17 6.17 14.378 9.566 23.105 9.566h.3c8.727 0 16.934-3.395 23.105-9.566 5.082-5.082 8.287-11.552 9.256-18.552l1.148-1.098s1.098 1.168 1.108 1.168c-2.286 17.074-16.944 30.294-34.627 30.294zm33.839-33.799l-1.129-1.108 1.109-1.128 1.128 1.108-1.108 1.128z" fill="url(#paint7_linear)"/><path d="M23.035 57.901c-.879-.06-1.448-.43-1.887-.839-.12.02-.24.02-.37.02-1.517 0-2.675-1.108-2.675-2.556 0-1.468 1.158-2.576 2.675-2.576 1.518 0 2.677 1.108 2.677 2.576 0 .879-.43 1.628-1.099 2.087.33.08.719.13 1.118.14l-.439 1.148zm-2.247-2.057c.78 0 1.368-.579 1.368-1.328 0-.748-.589-1.338-1.367-1.338-.78 0-1.368.58-1.368 1.338 0 .75.589 1.328 1.367 1.328z" fill="url(#paint8_linear)"/><path d="M24.084 55.187v-3.105h1.308v3.095c0 .41.35.679.719.679.37 0 .719-.28.719-.68v-3.095h1.308v3.106c0 1.118-.909 1.907-2.027 1.907-1.128 0-2.027-.789-2.027-1.907z" fill="url(#paint9_linear)"/><path d="M31.532 56.954l-1.308-2.117v2.117h-1.298l-.01-4.873h1.847c1.049 0 1.808.71 1.808 1.588 0 .61-.37 1.119-.84 1.338l1.309 1.957h-1.508v-.01zm-1.308-2.736h.53c.279 0 .528-.19.528-.489 0-.3-.25-.49-.529-.49h-.529v.98z" fill="url(#paint10_linear)"/><path d="M33.229 53.989c.19 0 .539-.14.539-.51 0-.11-.02-.16-.05-.21-.27 0-.55-.259-.55-.618 0-.38.32-.72.77-.72.47 0 .759.37.759.94 0 .648-.38 1.317-1.019 1.317-.26.01-.45-.13-.45-.2z" fill="url(#paint11_linear)"/><path d="M34.897 54.528c0-1.468 1.158-2.576 2.675-2.576 1.518 0 2.676 1.108 2.676 2.576 0 1.448-1.158 2.556-2.675 2.556-1.518 0-2.676-1.108-2.676-2.556zm4.033-.01c0-.75-.589-1.338-1.367-1.338-.78 0-1.369.579-1.369 1.338 0 .749.59 1.328 1.368 1.328.78 0 1.368-.58 1.368-1.328z" fill="url(#paint12_linear)"/><path d="M45.093 52.072v4.932h-.41l-2.506-2.426v2.386h-1.298v-4.922h.42l2.495 2.416v-2.386h1.299z" fill="url(#paint13_linear)"/><path d="M51.162 53.29h-1.168v3.664h-1.298V53.29h-1.169v-1.21h3.635v1.209z" fill="url(#paint14_linear)"/><path d="M56.426 52.081l-2.247 4.923h-.589l-2.237-4.922h1.398l1.129 2.636 1.128-2.637h1.418z" fill="url(#paint15_linear)"/><path d="M113.777 45.281c1.114 0 2.121-.175 3.024-.527l1.57 2.156h2.367l-2.238-3.082c1.957-1.476 3.07-4.008 3.07-7.277 0-5.367-3-8.742-7.793-8.742s-7.793 3.375-7.793 8.742c0 5.367 3 8.73 7.793 8.73zm0-1.945c-3.457 0-5.625-2.625-5.625-6.785 0-4.172 2.168-6.797 5.625-6.797s5.625 2.625 5.625 6.797c0 2.484-.773 4.43-2.132 5.578l-1.442-1.969h-2.367l2.109 2.906a5.86 5.86 0 01-1.793.27zm20.11-10.523h-2.039v7.16c0 2.074-1.196 3.433-3.176 3.433-1.887 0-2.813-1.066-2.813-3.047v-7.547h-2.039v7.91c0 2.766 1.559 4.489 4.219 4.489 1.875 0 3.141-.785 3.867-2.191h.047V45h1.934V32.812zM136.535 45h2.039v-7.594c0-1.722 1.031-2.86 2.614-2.86.492 0 .925.06 1.089.118v-1.98c-.164-.024-.468-.082-.82-.082-1.43 0-2.555.855-2.953 2.203h-.047v-1.992h-1.922V45zm9.281-10.945l1.606-5.965h-2.168l-1.137 5.965h1.699zm7.489 11.156c3.363 0 5.636-2.426 5.636-6.305 0-3.89-2.273-6.304-5.636-6.304-3.375 0-5.649 2.414-5.649 6.304 0 3.88 2.274 6.305 5.649 6.305zm0-1.793c-2.157 0-3.575-1.64-3.575-4.512 0-2.87 1.418-4.511 3.575-4.511 2.156 0 3.562 1.64 3.562 4.511 0 2.871-1.406 4.512-3.562 4.512zM161.004 45h2.039v-7.172c0-2.062 1.254-3.422 3.176-3.422 1.875 0 2.801 1.078 2.801 3.047V45h2.039v-7.91c0-2.766-1.547-4.488-4.219-4.488-1.887 0-3.188.843-3.867 2.156h-.047v-1.946h-1.922V45zm13.312-15.129v2.942H172.5v1.675h1.816v7.348c0 2.344.868 3.258 3.106 3.258.48 0 1.043-.035 1.289-.094v-1.71a7.944 7.944 0 01-.844.058c-1.043 0-1.512-.504-1.512-1.617v-7.243h2.368v-1.675h-2.368V29.87h-2.039zm16.582 2.942h-2.121l-3.375 10.019h-.047l-3.363-10.02h-2.144L184.336 45h2.086l4.476-12.188zm1.571 12.304a1.32 1.32 0 001.336-1.336 1.32 1.32 0 00-1.336-1.336 1.32 1.32 0 00-1.336 1.336c0 .75.586 1.336 1.336 1.336zm14.379-12.304h-2.039v7.16c0 2.074-1.196 3.433-3.176 3.433-1.887 0-2.813-1.066-2.813-3.047v-7.547h-2.039v7.91c0 2.766 1.559 4.489 4.219 4.489 1.875 0 3.141-.785 3.867-2.191h.047V45h1.934V32.812zM209.238 45h9.094v-1.676h-6.738v-.035l6.703-8.988v-1.489h-9.047v1.676h6.738v.035l-6.75 9.024V45z" fill="#fff"/><defs><linearGradient id="paint1_linear" x1="36.644" y1="19.009" x2="36.75" y2="19.005" gradientUnits="userSpaceOnUse"><stop offset=".076" stop-color="#A37233"/><stop offset=".335" stop-color="#D5A959"/><stop offset=".608" stop-color="#CB9E51"/><stop offset="1" stop-color="#E8BD67"/></linearGradient><linearGradient id="paint8_linear" x1="17.824" y1="58.072" x2="24.499" y2="52.3" gradientUnits="userSpaceOnUse"><stop offset=".076" stop-color="#A37233"/><stop offset=".335" stop-color="#D5A959"/><stop offset=".608" stop-color="#CB9E51"/><stop offset="1" stop-color="#E8BD67"/></linearGradient><linearGradient id="paint2_linear" x1="33.673" y1="42.639" x2="41.021" y2="41.825" gradientUnits="userSpaceOnUse"><stop offset=".076" stop-color="#A37233"/><stop offset=".335" stop-color="#D5A959"/><stop offset=".608" stop-color="#CB9E51"/><stop offset="1" stop-color="#E8BD67"/></linearGradient><linearGradient id="paint3_linear" x1="13.495" y1="48.563" x2="35.44" y2="31.607" gradientUnits="userSpaceOnUse"><stop offset=".076" stop-color="#A37233"/><stop offset=".335" stop-color="#D5A959"/><stop offset=".608" stop-color="#CB9E51"/><stop offset="1" stop-color="#E8BD67"/></linearGradient><linearGradient id="paint4_linear" x1="19.677" y1="40.691" x2="23.68" y2="36.856" gradientUnits="userSpaceOnUse"><stop offset=".076" stop-color="#A37233"/><stop offset=".335" stop-color="#D5A959"/><stop offset=".608" stop-color="#CB9E51"/><stop offset="1" stop-color="#E8BD67"/></linearGradient><linearGradient id="paint5_linear" x1="49.073" y1="21.149" x2="52.646" y2="17.726" gradientUnits="userSpaceOnUse"><stop offset=".076" stop-color="#A37233"/><stop offset=".335" stop-color="#D5A959"/><stop offset=".608" stop-color="#CB9E51"/><stop offset="1" stop-color="#E8BD67"/></linearGradient><linearGradient id="paint6_linear" x1="54.615" y1="21.149" x2="58.188" y2="17.726" gradientUnits="userSpaceOnUse"><stop offset=".076" stop-color="#A37233"/><stop offset=".335" stop-color="#D5A959"/><stop offset=".608" stop-color="#CB9E51"/><stop offset="1" stop-color="#E8BD67"/></linearGradient><linearGradient id="paint7_linear" x1="-3.866" y1="75.101" x2="78.855" y2="-5.792" gradientUnits="userSpaceOnUse"><stop offset=".076" stop-color="#A37233"/><stop offset=".335" stop-color="#D5A959"/><stop offset=".608" stop-color="#CB9E51"/><stop offset="1" stop-color="#E8BD67"/></linearGradient><linearGradient id="paint0_linear" x1="34.068" y1="48.541" x2="61.278" y2="23.551" gradientUnits="userSpaceOnUse"><stop offset=".076" stop-color="#A37233"/><stop offset=".335" stop-color="#D5A959"/><stop offset=".608" stop-color="#CB9E51"/><stop offset="1" stop-color="#E8BD67"/></linearGradient><linearGradient id="paint9_linear" x1="23.874" y1="57.238" x2="29.375" y2="52.975" gradientUnits="userSpaceOnUse"><stop offset=".076" stop-color="#A37233"/><stop offset=".335" stop-color="#D5A959"/><stop offset=".608" stop-color="#CB9E51"/><stop offset="1" stop-color="#E8BD67"/></linearGradient><linearGradient id="paint10_linear" x1="28.702" y1="57.105" x2="34.114" y2="52.725" gradientUnits="userSpaceOnUse"><stop offset=".076" stop-color="#A37233"/><stop offset=".335" stop-color="#D5A959"/><stop offset=".608" stop-color="#CB9E51"/><stop offset="1" stop-color="#E8BD67"/></linearGradient><linearGradient id="paint11_linear" x1="33.09" y1="54.254" x2="35.425" y2="52.739" gradientUnits="userSpaceOnUse"><stop offset=".076" stop-color="#A37233"/><stop offset=".335" stop-color="#D5A959"/><stop offset=".608" stop-color="#CB9E51"/><stop offset="1" stop-color="#E8BD67"/></linearGradient><linearGradient id="paint12_linear" x1="34.619" y1="57.232" x2="40.436" y2="51.42" gradientUnits="userSpaceOnUse"><stop offset=".076" stop-color="#A37233"/><stop offset=".335" stop-color="#D5A959"/><stop offset=".608" stop-color="#CB9E51"/><stop offset="1" stop-color="#E8BD67"/></linearGradient><linearGradient id="paint13_linear" x1="40.66" y1="57.147" x2="46.167" y2="52.667" gradientUnits="userSpaceOnUse"><stop offset=".076" stop-color="#A37233"/><stop offset=".335" stop-color="#D5A959"/><stop offset=".608" stop-color="#CB9E51"/><stop offset="1" stop-color="#E8BD67"/></linearGradient><linearGradient id="paint14_linear" x1="47.339" y1="57.094" x2="52.564" y2="53.36" gradientUnits="userSpaceOnUse"><stop offset=".076" stop-color="#A37233"/><stop offset=".335" stop-color="#D5A959"/><stop offset=".608" stop-color="#CB9E51"/><stop offset="1" stop-color="#E8BD67"/></linearGradient><linearGradient id="paint15_linear" x1="51.09" y1="57.146" x2="56.669" y2="51.638" gradientUnits="userSpaceOnUse"><stop offset=".076" stop-color="#A37233"/><stop offset=".335" stop-color="#D5A959"/><stop offset=".608" stop-color="#CB9E51"/><stop offset="1" stop-color="#E8BD67"/></linearGradient></defs></svg>