<svg width="27" height="19" fill="none" xmlns="http://www.w3.org/2000/svg"><path d="M25.512 2.64l.033.214A3.307 3.307 0 0023.297.558l-.023-.006C21.24 0 13.056 0 13.056 0S4.892-.01 2.838.552A3.309 3.309 0 00.573 2.831l-.005.023C-.192 6.822-.198 11.59.6 15.84l-.033-.216a3.308 3.308 0 002.248 2.296l.023.006c2.031.553 10.218.553 10.218.553s8.163 0 10.218-.553a3.308 3.308 0 002.266-2.279l.005-.023c.346-1.845.544-3.97.544-6.14l-.001-.24v-.25c0-2.17-.197-4.295-.576-6.355zM10.445 13.21V5.28l6.811 3.97-6.811 3.958z" fill="#fff"/></svg>